<svg xmlns="http://www.w3.org/2000/svg" width="26.57" height="37.789" viewBox="0 0 26.57 37.789"><defs><style>.a{fill:#00b8cd;}</style></defs><g transform="translate(-76)"><g transform="translate(76)"><path class="a" d="M89.285,0a13.288,13.288,0,0,0-11.3,20.271L88.529,37.266a1.107,1.107,0,0,0,.941.523h.009a1.107,1.107,0,0,0,.941-.538L100.7,20.092A13.288,13.288,0,0,0,89.285,0ZM98.8,18.955l-9.343,15.6L79.865,19.1a11.078,11.078,0,1,1,18.931-.15Z" transform="translate(-76)"/></g><g transform="translate(82.643 6.643)"><path class="a" d="M172.643,90a6.643,6.643,0,1,0,6.643,6.643A6.65,6.65,0,0,0,172.643,90Zm0,11.086a4.443,4.443,0,1,1,4.436-4.443A4.447,4.447,0,0,1,172.643,101.086Z" transform="translate(-166 -90)"/></g></g></svg>