<svg xmlns="http://www.w3.org/2000/svg" width="30.187" height="28.24" viewBox="0 0 30.187 28.24"><defs><style>.a{fill:#00b8cd;}</style></defs><g transform="translate(0 -25)"><path class="a" d="M99.562,249H97.818a.818.818,0,0,0,0,1.635h1.744a.818.818,0,0,0,0-1.635Z" transform="translate(-91.221 -210.205)"/><path class="a" d="M99.562,313H97.818a.818.818,0,1,0,0,1.635h1.744a.818.818,0,1,0,0-1.635Z" transform="translate(-91.221 -270.263)"/><path class="a" d="M99.562,377H97.818a.818.818,0,1,0,0,1.635h1.744a.818.818,0,1,0,0-1.635Z" transform="translate(-91.221 -330.322)"/><path class="a" d="M227.562,249h-1.744a.818.818,0,0,0,0,1.635h1.744a.818.818,0,0,0,0-1.635Z" transform="translate(-211.596 -210.205)"/><path class="a" d="M227.562,313h-1.744a.818.818,0,0,0,0,1.635h1.744a.818.818,0,0,0,0-1.635Z" transform="translate(-211.596 -270.263)"/><path class="a" d="M227.562,377h-1.744a.818.818,0,0,0,0,1.635h1.744a.818.818,0,0,0,0-1.635Z" transform="translate(-211.596 -330.322)"/><path class="a" d="M355.562,249h-1.744a.818.818,0,0,0,0,1.635h1.744a.818.818,0,0,0,0-1.635Z" transform="translate(-331.971 -210.205)"/><path class="a" d="M355.562,313h-1.744a.818.818,0,0,0,0,1.635h1.744a.818.818,0,0,0,0-1.635Z" transform="translate(-331.971 -270.263)"/><path class="a" d="M355.562,377h-1.744a.818.818,0,0,0,0,1.635h1.744a.818.818,0,0,0,0-1.635Z" transform="translate(-331.971 -330.322)"/><path class="a" d="M27.533,27.445H25.411V25.917a.885.885,0,1,0-1.769,0v1.528H15.978V25.917a.885.885,0,1,0-1.769,0v1.528H6.544V25.917a.885.885,0,1,0-1.769,0v1.528H2.653A2.706,2.706,0,0,0,0,30.2V50.49A2.706,2.706,0,0,0,2.653,53.24h24.88a2.706,2.706,0,0,0,2.653-2.751V30.2A2.706,2.706,0,0,0,27.533,27.445ZM1.769,30.2a.9.9,0,0,1,.884-.917H4.776v1.528a.885.885,0,1,0,1.769,0V29.279h7.665v1.528a.885.885,0,1,0,1.769,0V29.279h7.665v1.528a.885.885,0,1,0,1.769,0V29.279h2.122a.9.9,0,0,1,.884.917V33.8H1.769ZM27.533,51.407H2.653a.9.9,0,0,1-.884-.917V35.636H28.418V50.49A.9.9,0,0,1,27.533,51.407Z" transform="translate(0 0)"/></g></svg>