<svg xmlns="http://www.w3.org/2000/svg" width="30.873" height="37.789" viewBox="0 0 30.873 37.789"><defs><style>.a{fill:#00b8cd;}</style></defs><ellipse class="a" cx="1.893" cy="1.893" rx="1.893" ry="1.893" transform="translate(14.495)"/><ellipse class="a" cx="1.893" cy="1.893" rx="1.893" ry="1.893" transform="translate(4.468)"/><path class="a" d="M19.143,7.743a5.265,5.265,0,0,1,4.607-2.66V6.96a3.443,3.443,0,0,0-2.982,5.164L26.8,22.567a3.443,3.443,0,0,0,5.963,0L38.79,12.124A3.443,3.443,0,0,0,35.809,6.96V5.083a5.32,5.32,0,0,1,4.607,7.98L34.387,23.506a5.255,5.255,0,0,1-3.669,2.577v5.036c0,4.92,2.9,8.922,6.474,8.922s6.474-4,6.474-8.922v-6a4.691,4.691,0,1,1,1.877,0v6c0,5.955-3.746,10.8-8.351,10.8s-8.351-4.845-8.351-10.8V26.082a5.255,5.255,0,0,1-3.668-2.577L19.143,13.063A5.265,5.265,0,0,1,19.143,7.743Z" transform="translate(-18.422 -4.129)"/></svg>