<svg xmlns="http://www.w3.org/2000/svg" width="29.93" height="38.276" viewBox="0 0 29.93 38.276"><defs><style>.a{fill:#00b8cd;stroke:#00b8cd;stroke-width:0.2px;}</style></defs><g transform="translate(-56.014 0.1)"><g transform="translate(66.844 11.923)"><path class="a" d="M200.964,160.322a.558.558,0,0,0-.558.558v.6a.558.558,0,0,0,1.116,0v-.6A.558.558,0,0,0,200.964,160.322Z" transform="translate(-200.406 -160.322)"/></g><g transform="translate(73.998 11.923)"><g transform="translate(0)"><path class="a" d="M297.156,160.322a.558.558,0,0,0-.558.558v.6a.558.558,0,0,0,1.116,0v-.6A.558.558,0,0,0,297.156,160.322Z" transform="translate(-296.598 -160.322)"/></g></g><g transform="translate(68.633 16.095)"><path class="a" d="M228.985,216.6a.557.557,0,0,0-.789-.005,2.458,2.458,0,0,1-2.793,0,.558.558,0,0,0-.783.794,3.518,3.518,0,0,0,4.36,0A.558.558,0,0,0,228.985,216.6Z" transform="translate(-224.454 -216.435)"/></g><g transform="translate(66.248 10.134)"><path class="a" d="M194.14,136.274h-1.192a.558.558,0,1,0,0,1.115h1.192a.558.558,0,1,0,0-1.115Z" transform="translate(-192.39 -136.274)"/></g><g transform="translate(73.402 10.134)"><path class="a" d="M290.332,136.274H289.14a.558.558,0,1,0,0,1.115h1.192a.558.558,0,1,0,0-1.115Z" transform="translate(-288.582 -136.274)"/></g><g transform="translate(56.114)"><path class="a" d="M82.924,26.567,78.9,25.331a1.279,1.279,0,0,0-.708-1.222L75.71,22.866V21.093a8.32,8.32,0,0,0,3.5-5.671h.332a2.113,2.113,0,0,0,2.123-1.839,2.045,2.045,0,0,0-1.182-2.069V5.327a4.139,4.139,0,0,0-4.135-4.135H76.25A7.031,7.031,0,0,0,72.134,0,14.22,14.22,0,0,0,65.2,1.566,24.189,24.189,0,0,1,61.731,2.9a.558.558,0,0,0-.358.75,5.06,5.06,0,0,0,.909,1.322,4.562,4.562,0,0,0-.8,2.934v3.63a2.034,2.034,0,0,0,.856,3.883h.416a8.317,8.317,0,0,0,3.5,5.671v1.772l-2.486,1.243a1.279,1.279,0,0,0-.708,1.222l-4.02,1.236a4.114,4.114,0,0,0-2.919,3.952v7a.558.558,0,0,0,1.115,0v-7a3,3,0,0,1,2.132-2.886l4.182-1.286.738.984-.839.839a1.748,1.748,0,0,0-.328,2.02l1.6,3.193h-1.52v-.634a.558.558,0,0,0-1.115,0v.634H59.653a.558.558,0,0,0-.558.558v3.577a.558.558,0,0,0,.558.558h5.961a.558.558,0,0,0,.558-.558V36.3l.732,1.464a.558.558,0,0,0,1-.5l-3.789-7.577a.634.634,0,0,1,.119-.732l1.181-1.181a.558.558,0,0,0,.052-.729L64.2,25.364a.172.172,0,0,1,.061-.257l2.2-1.1,1.551,5.317a.558.558,0,1,0,1.071-.312l-.244-.838a6.526,6.526,0,0,0,4.288,0l-2.144,7.35-1.2-4.127a.558.558,0,1,0-1.071.312l1.739,5.963a.558.558,0,0,0,1.071,0L75.5,24.008l2.2,1.1a.172.172,0,0,1,.061.257l-1.264,1.685a.558.558,0,0,0,.052.729l1.181,1.181a.634.634,0,0,1,.119.732l-3.789,7.577a.558.558,0,1,0,1,.5l3.789-7.577a1.748,1.748,0,0,0-.328-2.02l-.839-.839.738-.984L82.6,27.633a3,3,0,0,1,2.132,2.886v7a.558.558,0,1,0,1.115,0v-7A4.114,4.114,0,0,0,82.924,26.567ZM65.056,36.96H60.21V34.5h1.865v.038a.558.558,0,0,0,1.115,0V34.5h1.865V36.96Zm.6-34.378a13.137,13.137,0,0,1,6.477-1.467c2.058,0,3.9.861,4.277,2a.558.558,0,1,0,1.058-.353,2.629,2.629,0,0,0-.114-.283,3.024,3.024,0,0,1,2.008,2.844v6h-.634a.635.635,0,0,1-.635-.634v-.6a7.106,7.106,0,0,0-1.952-4.567.558.558,0,0,0-.562-.138c-3.1.978-7.462,1.8-10.676.176A6,6,0,0,1,62.73,3.762,27.431,27.431,0,0,0,65.657,2.582Zm8.937,20.549-1.065,3.652a5.411,5.411,0,0,1-5.1,0l-1.065-3.653V21.747a8.3,8.3,0,0,0,7.23,0Zm-3.615-1.67a7.2,7.2,0,0,1-7.192-7.192.558.558,0,1,0-1.115,0v.038h-.336a.933.933,0,0,1-.928-1.031.99.99,0,0,1,1.013-.834h.809a1.752,1.752,0,0,0,1.75-1.75V8.587a.558.558,0,0,0-1.115,0v2.105a.635.635,0,0,1-.634.634h-.634V7.91a3.759,3.759,0,0,1,.51-2.172,7.666,7.666,0,0,0,1.208.779A10.412,10.412,0,0,0,68.784,7.6a21.109,21.109,0,0,0,6.785-1.039A5.878,5.878,0,0,1,76.979,10.1v.6a1.752,1.752,0,0,0,1.75,1.75h.894a.933.933,0,0,1,.928,1.031.989.989,0,0,1-1.013.835h-.252v-.033a.558.558,0,0,0-.558-.558h0a.558.558,0,0,0-.558.557A7.2,7.2,0,0,1,70.979,21.461Z" transform="translate(-56.114)"/></g><g transform="translate(78.767 32.191)"><path class="a" d="M364.266,434.361h-.933v-.933a.558.558,0,0,0-1.116,0v.933h-.933a.558.558,0,1,0,0,1.115h.933v.933a.558.558,0,0,0,1.116,0v-.933h.933a.558.558,0,1,0,0-1.115Z" transform="translate(-360.728 -432.871)"/></g></g></svg>