<svg xmlns="http://www.w3.org/2000/svg" width="27.167" height="29" viewBox="0 0 27.167 29"><defs><style>.a{fill:#00b8cd;}</style></defs><g transform="translate(-16.179)"><g transform="translate(16.179)"><path class="a" d="M38.141,0V1.776h2l-3.907,3.7A7.606,7.606,0,0,0,24.128,7.123c-.111,0-.223-.008-.336-.008A7.613,7.613,0,0,0,22.9,22.29V24.65H20.247v1.776H22.9V29H24.68V26.425h2.774V24.65H24.68V22.29A7.628,7.628,0,0,0,30.458,18.4c.111,0,.223.008.335.008A7.61,7.61,0,0,0,37.327,6.893l4.243-4.024V5.075h1.776V0ZM23.793,20.567A5.838,5.838,0,0,1,23.419,8.9,7.618,7.618,0,0,0,28.57,18.08,5.835,5.835,0,0,1,23.793,20.567Zm5.576-4.107a5.84,5.84,0,0,1-4.151-7.393,5.84,5.84,0,0,1,4.151,7.393Zm1.8.164a7.618,7.618,0,0,0-5.151-9.177,5.837,5.837,0,1,1,5.151,9.177Z" transform="translate(-16.179)"/></g></g></svg>