<svg xmlns="http://www.w3.org/2000/svg" width="20.5" height="29.425" viewBox="0 0 20.5 29.425"><defs><style>.a{fill:#00b8cd;}</style></defs><g transform="translate(-77.598 0)"><path class="a" d="M97.479,7.548l-1.934-1.62-.44-2.484a1.723,1.723,0,0,0-1.7-1.424h0l-2.522,0L88.949.4a1.723,1.723,0,0,0-2.218,0L84.8,2.029l-2.522,0a1.723,1.723,0,0,0-1.7,1.427l-.436,2.484L78.214,7.566A1.723,1.723,0,0,0,77.83,9.75l1.263,2.183-.436,2.484a1.723,1.723,0,0,0,1.111,1.92l2.127.772L81.9,27.7a1.724,1.724,0,0,0,2.709,1.417l3.214-2.231,3.214,2.231A1.725,1.725,0,0,0,93.751,27.7V17.122l2.19-.8A1.723,1.723,0,0,0,97.048,14.4l-.44-2.484,1.259-2.186a1.723,1.723,0,0,0-.387-2.184Zm-9.16,17.578a.863.863,0,0,0-.984,0L83.629,27.7h0l-.006-8.017a1.721,1.721,0,0,0,1.865.457l2.369-.865,2.371.86a1.723,1.723,0,0,0,1.8-.39V27.7Zm6.793-14.07a1.728,1.728,0,0,0-.2,1.162l.44,2.484-2.37.865a1.728,1.728,0,0,0-.753.542c-.009.011-.018.023-.027.035a1.71,1.71,0,0,0-.124.183l-1.259,2.186h0l-2.371-.86a1.728,1.728,0,0,0-1.18,0l-2.369.865-1.263-2.183a1.721,1.721,0,0,0-.242-.322l-.025-.027a1.728,1.728,0,0,0-.638-.409l-2.371-.861.436-2.484a1.728,1.728,0,0,0-.206-1.162L79.324,8.886l1.931-1.623a1.727,1.727,0,0,0,.589-1.023l.436-2.484,2.522,0a1.728,1.728,0,0,0,1.109-.4l1.931-1.623,1.934,1.619a1.728,1.728,0,0,0,1.108.4h0l2.522,0,.44,2.484a1.728,1.728,0,0,0,.591,1.021l1.934,1.62Z" transform="translate(0)"/><path class="a" d="M174.3,93.29a4.975,4.975,0,1,0,4.975,4.975A4.98,4.98,0,0,0,174.3,93.29Zm0,8.224a3.249,3.249,0,1,1,3.249-3.249A3.253,3.253,0,0,1,174.3,101.514Z" transform="translate(-86.452 -87.925)"/></g></svg>