<svg xmlns="http://www.w3.org/2000/svg" width="45.306" height="35.456" viewBox="0 0 45.306 35.456"><defs><style>.a{fill:#00b8cd;}</style></defs><g transform="translate(0 0)"><g transform="translate(14.025 11.185)"><path class="a" d="M167.818,182.808l-8.667,8.648,2.482,2.482,3.478-3.5.827-2.087v18.725h3.76V188.373l.771,2.049L174,193.938l2.463-2.463Z" transform="translate(-159.151 -182.808)"/></g><g transform="translate(0)"><path class="a" d="M34.913,65.076h-.188A14.044,14.044,0,0,0,7.5,69.832v.884a7.577,7.577,0,1,0,.15,15.153h9.4v-3.76h-9.4a3.807,3.807,0,0,1,0-7.614l3.76.094s-.169-3.873-.169-4.756A10.265,10.265,0,0,1,31.529,67.52l.414,1.767,1.767-.32a6.627,6.627,0,1,1,1.2,13.141h-6.58v3.76h6.58a10.4,10.4,0,0,0,0-20.793Z" transform="translate(-0.001 -55.883)"/></g></g></svg>