<svg xmlns="http://www.w3.org/2000/svg" width="40.654" height="39.061" viewBox="0 0 40.654 39.061"><defs><style>.a{fill:#00b8cd;stroke:#00b8cd;stroke-width:0.5px;}</style></defs><g transform="translate(-13.951 -8.988) rotate(-30)"><g transform="translate(0 28.588)"><g transform="translate(0 0)"><path class="a" d="M30.781,43.583h0L24.961,28.97a.605.605,0,0,0-.786-.339h0l-23.61,9.4a.593.593,0,0,0-.242.192A.6.6,0,0,0,0,38.75V54.483a.605.605,0,0,0,.605.605H26.019a.605.605,0,0,0,.605-.605V45.89l3.819-1.521A.605.605,0,0,0,30.781,43.583ZM25.413,53.878H1.21V39.356h24.2ZM10.1,38.148l10.132-4.037a4.814,4.814,0,0,0,3.469,1.5l1.01,2.541Zm16.528,6.442V38.75a.605.605,0,0,0-.605-.605h-.01l-1.282-3.22a.5.5,0,0,0-.05-.076.6.6,0,0,0-.632-.466,3.618,3.618,0,0,1-3.172-1.366.6.6,0,0,0-.776-.136.68.68,0,0,0-.085.016L7.642,37.822a.6.6,0,0,0-.332.323H3.553L24.061,29.98l5.373,13.49Z" transform="translate(0 -28.588)"/><path class="a" d="M32.432,196.172a3.618,3.618,0,0,1,2.443,2.44.605.605,0,0,0,.58.432.554.554,0,0,0,.093-.014.564.564,0,0,0,.083.017H50.152a.519.519,0,0,0,.074-.015.563.563,0,0,0,.681-.414v0a3.618,3.618,0,0,1,2.443-2.443.6.6,0,0,0,.415-.666.611.611,0,0,0,.018-.09v-4.841a.546.546,0,0,0-.018-.09.6.6,0,0,0-.415-.666,3.614,3.614,0,0,1-2.442-2.443.6.6,0,0,0-.67-.415.57.57,0,0,0-.085-.017H35.63a.572.572,0,0,0-.09.018.6.6,0,0,0-.666.415,3.618,3.618,0,0,1-2.443,2.442.6.6,0,0,0-.415.666.61.61,0,0,0-.017.09v4.841a.559.559,0,0,0,.017.084A.6.6,0,0,0,32.432,196.172Zm.778-5.351a4.8,4.8,0,0,0,2.666-2.666h14.03a4.8,4.8,0,0,0,2.667,2.666v4.349a4.807,4.807,0,0,0-2.666,2.666H35.876a4.807,4.807,0,0,0-2.666-2.666Z" transform="translate(-29.58 -174.968)"/><path class="a" d="M131.63,226.206a3.63,3.63,0,1,0-3.63-3.63A3.63,3.63,0,0,0,131.63,226.206Zm0-6.051a2.42,2.42,0,1,1-2.42,2.42A2.42,2.42,0,0,1,131.63,220.155Z" transform="translate(-118.319 -204.547)"/><path class="a" d="M76.908,256.76a.908.908,0,1,0-.908-.908A.908.908,0,0,0,76.908,256.76Zm0-1.21a.3.3,0,1,1-.3.3A.3.3,0,0,1,76.908,255.55Z" transform="translate(-70.252 -237.824)"/><path class="a" d="M252.908,256.76a.908.908,0,1,0-.908-.908A.908.908,0,0,0,252.908,256.76Zm0-1.21a.3.3,0,1,1-.3.3A.3.3,0,0,1,252.908,255.55Z" transform="translate(-232.94 -237.824)"/></g></g></g></svg>